<svg width="22" height="26" viewBox="0 0 22 26" fill="none" xmlns="http://www.w3.org/2000/svg">
<path d="M8.8596 0.5C10.5341 0.499763 12.1745 1.0387 13.5905 2.05437C15.0065 3.07004 16.1403 4.52086 16.8604 6.23872C17.5806 7.95657 17.8576 9.87113 17.6594 11.7606C17.4612 13.65 16.7959 15.4369 15.7406 16.9143L21.7294 23.7194C21.8938 23.9051 21.9903 24.1546 21.9993 24.4178C22.0083 24.6809 21.9293 24.9382 21.7781 25.1379C21.6269 25.3375 21.4148 25.4646 21.1844 25.4936C20.954 25.5227 20.7225 25.4515 20.5365 25.2944L20.4338 25.193L14.4438 18.3878C13.3425 19.4032 12.0427 20.1034 10.6538 20.4294C9.2649 20.7555 7.82739 20.698 6.4621 20.2617C5.09681 19.8254 3.84363 19.0231 2.80787 17.9222C1.77211 16.8213 0.984033 15.4539 0.509877 13.9351C0.0357206 12.4162 -0.110665 10.7903 0.0830211 9.19377C0.276708 7.59729 0.804807 6.07696 1.62294 4.76055C2.44107 3.44413 3.52533 2.3701 4.7846 1.62872C6.04387 0.887329 7.44135 0.500247 8.8596 0.5V0.5ZM8.8596 2.58321C7.93672 2.58321 7.02287 2.78976 6.17023 3.19108C5.3176 3.59239 4.54288 4.18061 3.8903 4.92215C3.23772 5.66368 2.72007 6.54401 2.36689 7.51287C2.01372 8.48173 1.83194 9.52015 1.83194 10.5688C1.83194 11.6175 2.01372 12.656 2.36689 13.6248C2.72007 14.5937 3.23772 15.474 3.8903 16.2155C4.54288 16.9571 5.3176 17.5453 6.17023 17.9466C7.02287 18.3479 7.93672 18.5545 8.8596 18.5545C10.7235 18.5545 12.511 17.7131 13.8289 16.2155C15.1468 14.7179 15.8873 12.6868 15.8873 10.5688C15.8873 8.45092 15.1468 6.41974 13.8289 4.92215C12.511 3.42455 10.7235 2.58321 8.8596 2.58321V2.58321Z" fill="#939395"/>
</svg>
